# File created by Blade
# Date/Time:  Thu Jan 22 18:25:17 2015
#---------------------------------------------------------
:version 1.10
:name HOM
:units
  mass 1.0
  length 1.000000
  angle deg
:documentation
     Acclaim Skeleton File
:root
   axis xyz
   order TX TY TZ RX RY RZ
   position 0.000000 0.000000 0.000000
   orientation 0 0 0
:bonedata
   begin
      id 1
      name RightUpLeg_dum
      direction -1.000000 0.000000 0.000000
      length 4.478084
      axis 0.0 0.0 0.0 xyz
   end
   begin
      id 2
      name LeftUpLeg_dum
      direction 1.000000 0.000000 0.000000
      length 4.478084
      axis 0.0 0.0 0.0 xyz
   end
   begin
      id 3
      name Spine_dum
      direction 0.000000 1.000000 0.000000
      length 6.068208
      axis 0.0 0.0 0.0 xyz
   end
   begin
      id 4
      name RightUpLeg
      direction 0.000000 -1.000000 0.000000
      length 16.405774
      axis 0.0 0.0 0.0 xyz
      dof rx ry rz
   end
   begin
      id 5
      name RightLeg
      direction 0.000000 -1.000000 0.000000
      length 14.644143
      axis 0.0 0.0 0.0 xyz
      dof rx ry rz
   end
   begin
      id 6
      name RightFoot
      direction 0.000000 -0.258819 0.965926
      length 5.806150
      axis 15.0 0.0 0.0 xyz
      dof rx ry rz
   end
   begin
      id 7
      name RightToeBase
      direction 0.000000 0.000000 1.000000
      length 2.952750
      axis 0.0 0.0 0.0 xyz
      dof rx ry rz
   end
   begin
      id 8
      name LeftUpLeg
      direction 0.000000 -1.000000 0.000000
      length 16.405774
      axis 0.0 0.0 0.0 xyz
      dof rx ry rz
   end
   begin
      id 9
      name LeftLeg
      direction 0.000000 -1.000000 0.000000
      length 14.644143
      axis 0.0 0.0 0.0 xyz
      dof rx ry rz
   end
   begin
      id 10
      name LeftFoot
      direction 0.000000 -0.258819 0.965926
      length 5.806150
      axis 15.0 0.0 0.0 xyz
      dof rx ry rz
   end
   begin
      id 11
      name LeftToeBase
      direction 0.000000 0.000000 1.000000
      length 2.952750
      axis 0.0 0.0 0.0 xyz
      dof rx ry rz
   end
   begin
      id 12
      name Spine
      direction 0.000000 1.000000 0.000000
      length 0.000000
      axis 0.0 0.0 0.0 xyz
      dof rx ry rz
   end
   begin
      id 13
      name Spine_dum1
      direction 0.000000 1.000000 0.000000
      length 10.013923
      axis 0.0 0.0 0.0 xyz
   end
   begin
      id 14
      name Spine_dum2
      direction 0.000000 1.000000 0.000000
      length 10.013923
      axis 0.0 0.0 0.0 xyz
   end
   begin
      id 15
      name Spine_dum3
      direction 0.000000 1.000000 0.000000
      length 15.777476
      axis 0.0 0.0 0.0 xyz
   end
   begin
      id 16
      name RightShoulder
      direction -1.000000 0.000000 0.000000
      length 7.190220
      axis 0.0 0.0 90.0 xyz
      dof rx ry rz
   end
   begin
      id 17
      name RightArm
      direction -1.000000 0.000000 0.000000
      length 10.177469
      axis 0.0 0.0 90.0 xyz
      dof rx ry rz
   end
   begin
      id 18
      name RightForeArm
      direction -1.000000 0.000000 0.000000
      length 8.392114
      axis 0.0 0.0 90.0 xyz
      dof ry rz rx
   end
   begin
      id 19
      name RightHand
      direction -1.000000 0.000000 0.000000
      length 0.000000
      axis 0.0 0.0 90.0 xyz
      dof rx ry rz
   end
   begin
      id 20
      name RightHand_dum1
      direction -1.000000 0.000000 0.000000
      length 3.937000
      axis 0.0 0.0 90.0 xyz
   end
   begin
      id 21
      name RightHand_dum2
      direction 0.000000 0.000000 0.000000
      length 0.000000
      axis 0.0 0.0 90.0 xyz
   end
   begin
      id 22
      name RightHandThumb1
      direction 0.000000 0.000000 1.000000
      length 3.937000
      axis 0.0 0.0 90.0 xyz
      dof rx rz ry
   end
   begin
      id 23
      name LeftShoulder
      direction 1.000000 0.000000 0.000000
      length 7.190220
      axis 0.0 0.0 -90.0 xyz
      dof rx ry rz
   end
   begin
      id 24
      name LeftArm
      direction 1.000000 0.000000 0.000000
      length 10.177469
      axis 0.0 0.0 -90.0 xyz
      dof rx ry rz
   end
   begin
      id 25
      name LeftForeArm
      direction 1.000000 0.000000 0.000000
      length 8.392114
      axis 0.0 0.0 -90.0 xyz
      dof ry rz rx
   end
   begin
      id 26
      name LeftHand
      direction 1.000000 0.000000 0.000000
      length 0.000000
      axis 0.0 0.0 -90.0 xyz
      dof rx ry rz
   end
   begin
      id 27
      name LeftHand_dum1
      direction 1.000000 0.000000 0.000000
      length 3.937000
      axis 0.0 0.0 -90.0 xyz
   end
   begin
      id 28
      name LeftHand_dum2
      direction 0.000000 0.000000 0.000000
      length 0.000000
      axis 0.0 0.0 -90.0 xyz
   end
   begin
      id 29
      name LeftHandThumb1
      direction 0.000000 0.000000 1.000000
      length 3.937000
      axis 0.0 0.0 -90.0 xyz
      dof rx rz ry
   end
   begin
      id 30
      name Head
      direction 0.000000 1.000000 0.000000
      length 4.527550
      axis 0.0 0.0 0.0 xyz
      dof rx ry rz
   end
:hierarchy
   begin
      root RightUpLeg_dum LeftUpLeg_dum Spine_dum
      RightUpLeg_dum RightUpLeg
      LeftUpLeg_dum LeftUpLeg
      Spine_dum Spine
      RightUpLeg RightLeg
      RightLeg RightFoot
      RightFoot RightToeBase
      LeftUpLeg LeftLeg
      LeftLeg LeftFoot
      LeftFoot LeftToeBase
      Spine Spine_dum1 Spine_dum2 Spine_dum3
      Spine_dum1 RightShoulder
      Spine_dum2 LeftShoulder
      Spine_dum3 Head
      RightShoulder RightArm
      RightArm RightForeArm
      RightForeArm RightHand
      RightHand RightHand_dum1 RightHand_dum2
      RightHand_dum2 RightHandThumb1
      LeftShoulder LeftArm
      LeftArm LeftForeArm
      LeftForeArm LeftHand
      LeftHand LeftHand_dum1 LeftHand_dum2
      LeftHand_dum2 LeftHandThumb1
   end

# File created by Blade
# Date/Time:  Thu Jan 22 18:25:10 2015
# Frame Rate: 120.000 fps
#------------------------------------------------------
:FULLY-SPECIFIED
:DEGREES
667
root -3.018838 33.232923 0.312158 4.672614 1.169946 2.808457
RightUpLeg 3.288371 -6.727698 -1.938613
RightLeg 0.497024 -0.000000 -0.000000
RightFoot -12.032220 -5.023322 3.511162
RightToeBase 5.539843 -0.000000 -0.000000
LeftUpLeg 2.097200 1.401537 1.178255
LeftLeg 1.744719 -0.000000 -0.000000
LeftFoot -10.160673 1.724223 -9.375660
LeftToeBase 8.507157 -0.000000 -0.000000
Spine -9.913001 -0.332052 -1.669498
RightShoulder -28.905868 19.868103 -61.805812
RightArm 125.396606 46.679042 89.113757
RightForeArm 5.147237 -0.000000 143.520744
RightHand 10.070485 -0.000000 -5.310814
RightHandThumb1 -24.326973 -0.000000 -32.862282
LeftShoulder -21.255102 -10.497318 53.164921
LeftArm 25.514123 -64.519649 -23.785650
LeftForeArm -60.780248 -0.000000 116.266053
LeftHand -18.547953 0.000000 3.999033
LeftHandThumb1 -26.253704 0.000000 33.147579
Head 22.325708 -9.004229 -5.891754
668
root -3.022900 33.232079 0.312012 4.672285 1.163524 2.802174
RightUpLeg 3.285366 -6.698508 -1.921177
RightLeg 0.501598 -0.000000 -0.000000
RightFoot -12.041202 -5.061996 3.477919
RightToeBase 5.537517 -0.000000 -0.000000
LeftUpLeg 2.095098 1.423195 1.189191
LeftLeg 1.756200 -0.000000 -0.000000
LeftFoot -10.172357 1.698909 -9.492007
LeftToeBase 8.470436 -0.000000 -0.000000
Spine -9.903198 -0.330415 -1.683368
RightShoulder -28.893602 19.886139 -61.798688
RightArm 125.378762 46.695815 89.069248
RightForeArm 5.155111 -0.000000 143.524576
RightHand 10.074026 -0.000000 -5.339137
RightHandThumb1 -24.326973 -0.000000 -32.862282
LeftShoulder -21.249939 -10.503251 53.196617
LeftArm 25.460638 -64.487279 -23.774762
LeftForeArm -60.771014 -0.000000 116.296255
LeftHand -18.542423 0.000000 4.017720
LeftHandThumb1 -26.253704 0.000000 33.147579
Head 22.357894 -9.132417 -5.958491
669
root -3.024031 33.232327 0.312661 4.674363 1.174285 2.803612
RightUpLeg 3.288310 -6.726020 -1.922108
RightLeg 0.497581 -0.000000 -0.000000
RightFoot -12.037782 -5.043368 3.480298
RightToeBase 5.523779 -0.000000 -0.000000
LeftUpLeg 2.090124 1.408354 1.193651
LeftLeg 1.755025 -0.000000 -0.000000
LeftFoot -10.167946 1.710111 -9.395769
LeftToeBase 8.481655 -0.000000 -0.000000
Spine -9.896194 -0.332787 -1.687762
RightShoulder -28.898759 19.880001 -61.804442
RightArm 125.384541 46.684616 89.052829
RightForeArm 5.173604 -0.000000 143.519742
RightHand 10.089047 -0.000000 -5.340553
RightHandThumb1 -24.326973 -0.000000 -32.862282
LeftShoulder -21.239320 -10.499266 53.194892
LeftArm 25.434740 -64.477504 -23.787563
LeftForeArm -60.747551 0.000000 116.339265
LeftHand -18.550838 0.000000 4.131396
LeftHandThumb1 -26.253704 0.000000 33.147579
Head 22.370823 -9.158781 -5.982479
670
root -3.024154 33.232326 0.313153 4.675595 1.176987 2.806123
RightUpLeg 3.289826 -6.715493 -1.922983
RightLeg 0.494114 -0.000000 -0.000000
RightFoot -12.038699 -5.051900 3.487566
RightToeBase 5.576176 -0.000000 -0.000000
LeftUpLeg 2.086936 1.417055 1.191917
LeftLeg 1.760289 -0.000000 -0.000000
LeftFoot -10.156114 1.682324 -9.446029
LeftToeBase 8.459048 -0.000000 -0.000000
Spine -9.891269 -0.340664 -1.681555
RightShoulder -28.887690 19.870932 -61.812499
RightArm 125.415977 46.678218 89.052676
RightForeArm 5.165296 -0.000000 143.513501
RightHand 10.098436 -0.000000 -5.308922
RightHandThumb1 -24.326973 -0.000000 -32.862282
LeftShoulder -21.179798 -10.368156 53.129311
LeftArm 25.357608 -64.619467 -23.737582
LeftForeArm -60.816944 -0.000000 116.386032
LeftHand -18.504753 -0.000000 4.230844
LeftHandThumb1 -26.253704 0.000000 33.147579
Head 22.378459 -9.172203 -6.029642
671
root -3.024403 33.232181 0.314419 4.676014 1.184647 2.807005
RightUpLeg 3.296816 -6.717087 -1.922869
RightLeg 0.486158 -0.000000 -0.000000
RightFoot -12.034391 -5.056919 3.493201
RightToeBase 5.562454 -0.000000 -0.000000
LeftUpLeg 2.089869 1.396059 1.191585
LeftLeg 1.756160 -0.000000 -0.000000
LeftFoot -10.151854 1.696034 -9.444668
LeftToeBase 8.420409 -0.000000 -0.000000
Spine -9.882047 -0.356863 -1.667813
RightShoulder -28.904614 19.884324 -61.835358
RightArm 125.411704 46.636119 89.027272
RightForeArm 5.134819 -0.000000 143.506308
RightHand 10.078970 -0.000000 -5.296876
RightHandThumb1 -24.326973 -0.000000 -32.862282
LeftShoulder -21.171798 -10.657856 53.291892
LeftArm 24.878897 -64.320504 -23.432014
LeftForeArm -60.792485 -0.000000 116.450027
LeftHand -18.479612 -0.000000 4.235194
LeftHandThumb1 -26.253704 0.000000 33.147579
Head 22.370337 -9.164582 -6.079798
672
root -3.021654 33.232846 0.316171 4.674319 1.197003 2.812686
RightUpLeg 3.309862 -6.729115 -1.935019
RightLeg 0.475805 -0.000000 -0.000000
RightFoot -12.028491 -5.045302 3.515013
RightToeBase 5.532788 -0.000000 -0.000000
LeftUpLeg 2.091079 1.386199 1.179219
LeftLeg 1.758920 -0.000000 -0.000000
LeftFoot -10.150967 1.712402 -9.423998
LeftToeBase 8.443575 -0.000000 -0.000000
Spine -9.867395 -0.369709 -1.654397
RightShoulder -28.916545 19.874222 -61.855611
RightArm 125.450206 46.621749 89.044513
RightForeArm 5.118891 -0.000000 143.504967
RightHand 10.085776 0.000000 -5.284835
RightHandThumb1 -24.326973 -0.000000 -32.862282
LeftShoulder -21.169976 -10.702372 53.302034
LeftArm 24.790008 -64.279993 -23.400749
LeftForeArm -60.745889 -0.000000 116.495670
LeftHand -18.485434 0.000000 4.304190
LeftHandThumb1 -26.253704 0.000000 33.147579
Head 22.364294 -9.125899 -6.109092
673
root -3.022368 33.233275 0.317510 4.674178 1.207623 2.809135
RightUpLeg 3.317736 -6.738780 -1.930171
RightLeg 0.467702 -0.000000 -0.000000
RightFoot -12.012041 -5.051852 3.515130
RightToeBase 5.488079 -0.000000 -0.000000
LeftUpLeg 2.091106 1.379621 1.185277
LeftLeg 1.759547 -0.000000 -0.000000
LeftFoot -10.152010 1.708100 -9.427656
LeftToeBase 8.463879 -0.000000 -0.000000
Spine -9.863358 -0.379632 -1.643092
RightShoulder -28.907798 19.851172 -61.851582
RightArm 125.484109 46.639430 89.034222
RightForeArm 5.106191 -0.000000 143.502485
RightHand 10.103949 -0.000000 -5.295304
RightHandThumb1 -24.326973 -0.000000 -32.862282
LeftShoulder -21.154114 -10.631793 53.256178
LeftArm 24.863538 -64.355271 -23.481472
LeftForeArm -60.729921 -0.000000 116.521674
LeftHand -18.503039 -0.000000 4.353100
LeftHandThumb1 -26.253704 0.000000 33.147579
Head 22.356554 -9.138526 -6.143144
674
root -3.026449 33.233310 0.317116 4.679568 1.195708 2.805070
RightUpLeg 3.303937 -6.708350 -1.915394
RightLeg 0.477695 -0.000000 -0.000000
RightFoot -12.021513 -5.083053 3.492878
RightToeBase 5.525501 -0.000000 -0.000000
LeftUpLeg 2.084499 1.406875 1.196166
LeftLeg 1.763915 -0.000000 -0.000000
LeftFoot -10.147592 1.683889 -9.472032
LeftToeBase 8.429892 -0.000000 -0.000000
Spine -9.857552 -0.379713 -1.655276
RightShoulder -28.908308 19.871221 -61.850907
RightArm 125.463970 46.654022 89.008940
RightForeArm 5.067243 -0.000000 143.512217
RightHand 10.081262 0.000000 -5.326060
RightHandThumb1 -24.326973 -0.000000 -32.862282
LeftShoulder -21.159270 -10.605454 53.254818
LeftArm 24.927796 -64.384745 -23.550510
LeftForeArm -60.722496 -0.000000 116.552678
LeftHand -18.531145 -0.000000 4.442470
LeftHandThumb1 -26.253704 0.000000 33.147579
Head 22.353023 -9.151591 -6.140330
675
root -3.023787 33.233907 0.318814 4.682245 1.202936 2.809783
RightUpLeg 3.309853 -6.723258 -1.927190
RightLeg 0.467440 -0.000000 -0.000000
RightFoot -12.017464 -5.061087 3.509602
RightToeBase 5.554274 -0.000000 -0.000000
LeftUpLeg 2.085580 1.401296 1.186184
LeftLeg 1.759220 -0.000000 -0.000000
LeftFoot -10.138217 1.691801 -9.463075
LeftToeBase 8.407269 -0.000000 -0.000000
Spine -9.857769 -0.390716 -1.641799
RightShoulder -28.904177 19.878298 -61.872356
RightArm 125.452380 46.650045 88.991689
RightForeArm 5.041417 -0.000000 143.511955
RightHand 10.110344 -0.000000 -5.283382
RightHandThumb1 -24.326973 -0.000000 -32.862282
LeftShoulder -21.159494 -10.619279 53.221665
LeftArm 25.003691 -64.380110 -23.605656
LeftForeArm -60.734288 -0.000000 116.556535
LeftHand -18.587769 -0.000000 4.474602
LeftHandThumb1 -26.253704 0.000000 33.147579
Head 22.359457 -9.143887 -6.189162
676
root -3.027107 33.233878 0.319345 4.687342 1.197495 2.806516
RightUpLeg 3.305454 -6.702686 -1.914761
RightLeg 0.464700 -0.000000 -0.000000
RightFoot -12.012286 -5.086672 3.499525
RightToeBase 5.535866 -0.000000 -0.000000
LeftUpLeg 2.082895 1.426103 1.197238
LeftLeg 1.757227 -0.000000 -0.000000
LeftFoot -10.147557 1.690223 -9.385953
LeftToeBase 8.527807 -0.000000 -0.000000
Spine -9.850316 -0.392316 -1.656328
RightShoulder -28.922867 19.896017 -61.870335
RightArm 125.415849 46.645208 88.968859
RightForeArm 5.022595 -0.000000 143.525385
RightHand 10.092688 -0.000000 -5.284242
RightHandThumb1 -24.326973 -0.000000 -32.862282
LeftShoulder -21.181589 -10.635609 53.251095
LeftArm 25.097092 -64.355507 -23.705730
LeftForeArm -60.699093 0.000000 116.554136
LeftHand -18.665959 -0.000000 4.447322
LeftHandThumb1 -26.253704 0.000000 33.147579
Head 22.356858 -9.113478 -6.163408
